# xmcd CD database file
#
# Track frame offsets:
#	151
#	21005
#	32015
#	56124
#	75097
#	92777
#	114536
#	126141
#	141497
#	151111
#	166223
#	175405
#	197061
#
# Disc length: 2875 seconds
#
# Revision: 0
# Processed by: cddbd v1.5.2PL0 Copyright (c) Steve Scherf et al.
# Submitted via: CDex 1.70beta2
#
DISCID=a30b390d
DTITLE=Luke Stone - Do You Have The Time?
DYEAR=2002
DGENRE=Jazz
TTITLE0=Larrytown Strut
TTITLE1=Gnomes Forest
TTITLE2=Schitzophonic
TTITLE3=Do You Have The Time?
TTITLE4=Witches Which?
TTITLE5=Past Tense
TTITLE6=Chain Of Events
TTITLE7=NYC, 911
TTITLE8=The Chase pts. 1&2
TTITLE9=Secluded Tuesday
TTITLE10=Wholetime
TTITLE11=No Backpacks Aloud
TTITLE12=Mothers Gift
EXTD=YEAR: 2002
EXTT0=
EXTT1=
EXTT2=
EXTT3=
EXTT4=
EXTT5=
EXTT6=
EXTT7=
EXTT8=
EXTT9=
EXTT10=
EXTT11=
EXTT12=
PLAYORDER=
